<?xml version="1.0" encoding="UTF-8" standalone="no"?>
<!-- Created with Inkscape (http://www.inkscape.org/) -->

<svg
   xmlns:dc="http://purl.org/dc/elements/1.1/"
   xmlns:cc="http://creativecommons.org/ns#"
   xmlns:rdf="http://www.w3.org/1999/02/22-rdf-syntax-ns#"
   xmlns:svg="http://www.w3.org/2000/svg"
   xmlns="http://www.w3.org/2000/svg"
   xmlns:sodipodi="http://sodipodi.sourceforge.net/DTD/sodipodi-0.dtd"
   xmlns:inkscape="http://www.inkscape.org/namespaces/inkscape"
   id="svg2985"
   version="1.1"
   inkscape:version="0.48.4 r9939"
   width="174.91588"
   height="206.28349"
   xml:space="preserve"
   sodipodi:docname="tree_7.svg"><metadata
     id="metadata2991"><rdf:RDF><cc:Work
         rdf:about=""><dc:format>image/svg+xml</dc:format><dc:type
           rdf:resource="http://purl.org/dc/dcmitype/StillImage" /><dc:title /></cc:Work></rdf:RDF></metadata><defs
     id="defs2989"><clipPath
       clipPathUnits="userSpaceOnUse"
       id="clipPath2999"><path
         d="M 0,800 800,800 800,0 0,0 0,800 z"
         id="path3001"
         inkscape:connector-curvature="0" /></clipPath><clipPath
       clipPathUnits="userSpaceOnUse"
       id="clipPath3007"><path
         d="M 0,800 800,800 800,0 0,0 0,800 z"
         id="path3009"
         inkscape:connector-curvature="0" /></clipPath><radialGradient
       fx="0"
       fy="0"
       cx="0"
       cy="0"
       r="1"
       gradientUnits="userSpaceOnUse"
       gradientTransform="matrix(507.02533,0,0,507.02533,392.11816,392.13184)"
       spreadMethod="pad"
       id="radialGradient3015"><stop
         style="stop-opacity:1;stop-color:#f5f7e9"
         offset="0"
         id="stop3017" /><stop
         style="stop-opacity:1;stop-color:#d4d6c4"
         offset="1"
         id="stop3019" /></radialGradient><clipPath
       clipPathUnits="userSpaceOnUse"
       id="clipPath3147"><path
         d="M 0,800 800,800 800,0 0,0 0,800 z"
         id="path3149"
         inkscape:connector-curvature="0" /></clipPath></defs><sodipodi:namedview
     pagecolor="#ffffff"
     bordercolor="#666666"
     borderopacity="1"
     objecttolerance="10"
     gridtolerance="10"
     guidetolerance="10"
     inkscape:pageopacity="0"
     inkscape:pageshadow="2"
     inkscape:window-width="1280"
     inkscape:window-height="666"
     id="namedview2987"
     showgrid="false"
     inkscape:zoom="0.449"
     inkscape:cx="326.40347"
     inkscape:cy="406.16441"
     inkscape:window-x="-8"
     inkscape:window-y="-8"
     inkscape:window-maximized="1"
     inkscape:current-layer="g2993"
     fit-margin-top="0"
     fit-margin-left="0"
     fit-margin-right="0"
     fit-margin-bottom="0" /><g
     id="g2993"
     inkscape:groupmode="layer"
     inkscape:label="14382-NPMS8H"
     transform="matrix(1.25,0,0,-1.25,-173.29338,318.2185)"><g
       id="g3411"
       transform="translate(243.3447,120.0928)"><path
         d="m 0,0 -22.286,39.616 10.447,0.808 -16.715,25.872 10.447,0.808 -22.286,29.104 9.75,0.81 -21.589,37.19 -0.237,-0.929 -0.008,1.203 -21.59,-37.188 9.75,-0.809 L -86.603,67.38 -76.156,66.571 -92.871,40.7 -82.423,39.892 -104.71,0.277 -86.4,0.517 -86.418,0.442 0,0 z"
         style="fill:#9eb121;fill-opacity:1;fill-rule:nonzero;stroke:none"
         id="path3413"
         inkscape:connector-curvature="0" /></g><path
       d="m 194.983,89.548 -7.986,0 0,39.933 7.986,0 0,-39.933 z"
       style="fill:#432416;fill-opacity:1;fill-rule:nonzero;stroke:none"
       id="path3415"
       inkscape:connector-curvature="0" /><g
       id="g3417"
       transform="translate(278.5674,109.3486)"><path
         d="m 0,0 -22.287,39.615 10.448,0.81 -16.715,25.87 10.447,0.809 -22.286,29.105 9.75,0.809 -21.59,37.189 -0.236,-0.928 -0.009,1.204 -21.589,-37.189 9.75,-0.809 L -86.603,67.38 -76.156,66.572 -92.871,40.699 -82.424,39.893 -104.71,0.276 -86.4,0.516 -86.418,0.442 0,0 z"
         style="fill:#c6cc38;fill-opacity:1;fill-rule:nonzero;stroke:none"
         id="path3419"
         inkscape:connector-curvature="0" /></g><path
       d="m 230.206,89.827 -7.986,0 0,29.285 7.986,0 0,-29.285 z"
       style="fill:#432416;fill-opacity:1;fill-rule:nonzero;stroke:none"
       id="path3421"
       inkscape:connector-curvature="0" /></g></svg>