<?xml version="1.0" encoding="UTF-8" standalone="no"?>
<!-- Created with Inkscape (http://www.inkscape.org/) -->

<svg
   xmlns:dc="http://purl.org/dc/elements/1.1/"
   xmlns:cc="http://creativecommons.org/ns#"
   xmlns:rdf="http://www.w3.org/1999/02/22-rdf-syntax-ns#"
   xmlns:svg="http://www.w3.org/2000/svg"
   xmlns="http://www.w3.org/2000/svg"
   xmlns:sodipodi="http://sodipodi.sourceforge.net/DTD/sodipodi-0.dtd"
   xmlns:inkscape="http://www.inkscape.org/namespaces/inkscape"
   id="svg2985"
   version="1.1"
   inkscape:version="0.48.4 r9939"
   width="159.93413"
   height="260.57513"
   xml:space="preserve"
   sodipodi:docname="tree_1.svg"><metadata
     id="metadata2991"><rdf:RDF><cc:Work
         rdf:about=""><dc:format>image/svg+xml</dc:format><dc:type
           rdf:resource="http://purl.org/dc/dcmitype/StillImage" /><dc:title /></cc:Work></rdf:RDF></metadata><defs
     id="defs2989"><clipPath
       clipPathUnits="userSpaceOnUse"
       id="clipPath2999"><path
         d="M 0,800 800,800 800,0 0,0 0,800 z"
         id="path3001"
         inkscape:connector-curvature="0" /></clipPath><clipPath
       clipPathUnits="userSpaceOnUse"
       id="clipPath3007"><path
         d="M 0,800 800,800 800,0 0,0 0,800 z"
         id="path3009"
         inkscape:connector-curvature="0" /></clipPath><radialGradient
       fx="0"
       fy="0"
       cx="0"
       cy="0"
       r="1"
       gradientUnits="userSpaceOnUse"
       gradientTransform="matrix(507.02533,0,0,507.02533,392.11816,392.13184)"
       spreadMethod="pad"
       id="radialGradient3015"><stop
         style="stop-opacity:1;stop-color:#f5f7e9"
         offset="0"
         id="stop3017" /><stop
         style="stop-opacity:1;stop-color:#d4d6c4"
         offset="1"
         id="stop3019" /></radialGradient><clipPath
       clipPathUnits="userSpaceOnUse"
       id="clipPath3147"><path
         d="M 0,800 800,800 800,0 0,0 0,800 z"
         id="path3149"
         inkscape:connector-curvature="0" /></clipPath></defs><sodipodi:namedview
     pagecolor="#ffffff"
     bordercolor="#666666"
     borderopacity="1"
     objecttolerance="10"
     gridtolerance="10"
     guidetolerance="10"
     inkscape:pageopacity="0"
     inkscape:pageshadow="2"
     inkscape:window-width="1280"
     inkscape:window-height="666"
     id="namedview2987"
     showgrid="false"
     inkscape:zoom="0.44900001"
     inkscape:cx="-322.60182"
     inkscape:cy="110.95189"
     inkscape:window-x="-8"
     inkscape:window-y="-8"
     inkscape:window-maximized="1"
     inkscape:current-layer="g2993"
     fit-margin-top="0"
     fit-margin-left="0"
     fit-margin-right="0"
     fit-margin-bottom="0" /><g
     id="g2993"
     inkscape:groupmode="layer"
     inkscape:label="14382-NPMS8H"
     transform="matrix(1.25,0,0,-1.25,-180.69912,900.56513)"><path
       d="m 202.682,511.992 15.189,0 0,42.107 -15.189,0 0,-42.107 z"
       style="fill:#432416;fill-opacity:1;fill-rule:nonzero;stroke:none"
       id="path3139"
       inkscape:connector-curvature="0" /><path
       d="m 202.682,511.992 7.767,0 0,42.107 -7.767,0 0,-42.107 z"
       style="fill:#5b2f2f;fill-opacity:1;fill-rule:nonzero;stroke:none"
       id="path3141"
       inkscape:connector-curvature="0" /><g
       id="g3151"
       transform="translate(144.5596,618.5601)"><path
         d="m 0,0 c 0,-38.11 29.273,-65.813 64.604,-65.813 35.338,0 63.343,27.703 63.343,65.813 0,38.104 -29.265,101.892 -64.603,101.892 C 28.004,101.892 0,38.104 0,0"
         style="fill:#c6cc38;fill-opacity:1;fill-rule:nonzero;stroke:none"
         id="path3153"
         inkscape:connector-curvature="0" /></g><g
       id="g3155"
       transform="translate(207.9033,720.4521)"><path
         d="m 0,0 c 0.859,0 1.694,-0.068 2.538,-0.143 l 0,-167.498 c -0.443,-0.021 -0.844,-0.064 -1.277,-0.064 -35.331,0 -64.605,27.703 -64.605,65.813 C -63.344,-63.789 -35.339,0 0,0"
         style="fill:#9eb121;fill-opacity:1;fill-rule:nonzero;stroke:none"
         id="path3157"
         inkscape:connector-curvature="0" /></g></g></svg>