<?xml version="1.0" encoding="UTF-8" standalone="no"?>
<!-- Created with Inkscape (http://www.inkscape.org/) -->

<svg
   xmlns:dc="http://purl.org/dc/elements/1.1/"
   xmlns:cc="http://creativecommons.org/ns#"
   xmlns:rdf="http://www.w3.org/1999/02/22-rdf-syntax-ns#"
   xmlns:svg="http://www.w3.org/2000/svg"
   xmlns="http://www.w3.org/2000/svg"
   xmlns:sodipodi="http://sodipodi.sourceforge.net/DTD/sodipodi-0.dtd"
   xmlns:inkscape="http://www.inkscape.org/namespaces/inkscape"
   id="svg2985"
   version="1.1"
   inkscape:version="0.48.4 r9939"
   width="172.34198"
   height="211.58807"
   xml:space="preserve"
   sodipodi:docname="tree_8.svg"><metadata
     id="metadata2991"><rdf:RDF><cc:Work
         rdf:about=""><dc:format>image/svg+xml</dc:format><dc:type
           rdf:resource="http://purl.org/dc/dcmitype/StillImage" /><dc:title /></cc:Work></rdf:RDF></metadata><defs
     id="defs2989"><clipPath
       clipPathUnits="userSpaceOnUse"
       id="clipPath2999"><path
         d="M 0,800 800,800 800,0 0,0 0,800 z"
         id="path3001"
         inkscape:connector-curvature="0" /></clipPath><clipPath
       clipPathUnits="userSpaceOnUse"
       id="clipPath3007"><path
         d="M 0,800 800,800 800,0 0,0 0,800 z"
         id="path3009"
         inkscape:connector-curvature="0" /></clipPath><radialGradient
       fx="0"
       fy="0"
       cx="0"
       cy="0"
       r="1"
       gradientUnits="userSpaceOnUse"
       gradientTransform="matrix(507.02533,0,0,507.02533,392.11816,392.13184)"
       spreadMethod="pad"
       id="radialGradient3015"><stop
         style="stop-opacity:1;stop-color:#f5f7e9"
         offset="0"
         id="stop3017" /><stop
         style="stop-opacity:1;stop-color:#d4d6c4"
         offset="1"
         id="stop3019" /></radialGradient><clipPath
       clipPathUnits="userSpaceOnUse"
       id="clipPath3147"><path
         d="M 0,800 800,800 800,0 0,0 0,800 z"
         id="path3149"
         inkscape:connector-curvature="0" /></clipPath></defs><sodipodi:namedview
     pagecolor="#ffffff"
     bordercolor="#666666"
     borderopacity="1"
     objecttolerance="10"
     gridtolerance="10"
     guidetolerance="10"
     inkscape:pageopacity="0"
     inkscape:pageshadow="2"
     inkscape:window-width="1280"
     inkscape:window-height="666"
     id="namedview2987"
     showgrid="false"
     inkscape:zoom="0.449"
     inkscape:cx="91.330088"
     inkscape:cy="413.97044"
     inkscape:window-x="-8"
     inkscape:window-y="-8"
     inkscape:window-maximized="1"
     inkscape:current-layer="g2993"
     fit-margin-top="0"
     fit-margin-left="0"
     fit-margin-right="0"
     fit-margin-bottom="0" /><g
     id="g2993"
     inkscape:groupmode="layer"
     inkscape:label="14382-NPMS8H"
     transform="matrix(1.25,0,0,-1.25,-408.36676,323.52245)"><g
       id="g3423"
       transform="translate(463.5068,150.6045)"><path
         d="m 0,0 c -4.168,-12.787 -21.215,-17.72 -32.877,-12.787 -8.521,3.589 -15.699,15.252 -11.213,23.774 4.485,8.525 13.455,14.356 22.875,15.252 C -9.103,26.688 2.561,15.922 0.902,3.958 0.76,2.653 0.467,1.346 0,0"
         style="fill:#c6cc38;fill-opacity:1;fill-rule:nonzero;stroke:none"
         id="path3425"
         inkscape:connector-curvature="0" /></g><g
       id="g3427"
       transform="translate(453.417,147.4102)"><path
         d="m 0,0 c -2.816,-8.64 -14.334,-11.972 -22.217,-8.64 -5.758,2.426 -10.607,10.306 -7.576,16.067 3.029,5.759 9.092,9.698 15.459,10.305 C -6.152,18.035 1.729,10.761 0.609,2.676 0.514,1.793 0.316,0.91 0,0"
         style="fill:#9eb121;fill-opacity:1;fill-rule:nonzero;stroke:none"
         id="path3429"
         inkscape:connector-curvature="0" /></g><g
       id="g3431"
       transform="translate(407.2588,209.0195)"><path
         d="M 0,0 C 7.658,14.627 29.301,17.114 42.408,8.759 51.992,2.672 58.295,-12.911 51.123,-22.313 43.951,-31.711 31.9,-36.938 20.316,-36.098 5.562,-34.165 -6.355,-18.75 -1.904,-4.606 -1.461,-3.058 -0.842,-1.533 0,0"
         style="fill:#c6cc38;fill-opacity:1;fill-rule:nonzero;stroke:none"
         id="path3433"
         inkscape:connector-curvature="0" /></g><g
       id="g3435"
       transform="translate(430.2236,206.5879)"><path
         d="M 0,0 C 3.402,6.497 13.016,7.602 18.838,3.89 23.096,1.186 25.896,-5.737 22.711,-9.914 19.525,-14.089 14.17,-16.409 9.025,-16.038 2.471,-15.179 -2.824,-8.331 -0.846,-2.046 -0.648,-1.359 -0.375,-0.682 0,0"
         style="fill:#9eb121;fill-opacity:1;fill-rule:nonzero;stroke:none"
         id="path3437"
         inkscape:connector-curvature="0" /></g><g
       id="g3439"
       transform="translate(385.7891,203.3848)"><path
         d="M 0,0 C -4.167,12.785 -21.213,17.719 -32.875,12.785 -41.398,9.196 -48.576,-2.466 -44.09,-10.989 -39.604,-19.512 -30.634,-25.343 -21.213,-26.24 -9.102,-26.688 2.562,-15.924 0.903,-3.96 0.761,-2.655 0.469,-1.347 0,0"
         style="fill:#c6cc38;fill-opacity:1;fill-rule:nonzero;stroke:none"
         id="path3441"
         inkscape:connector-curvature="0" /></g><g
       id="g3443"
       transform="translate(381.8901,201.623)"><path
         d="m 0,0 c -2.481,7.613 -12.631,10.55 -19.576,7.613 -5.075,-2.135 -9.348,-9.082 -6.677,-14.157 2.67,-5.073 8.012,-8.547 13.622,-9.081 7.212,-0.267 14.156,6.144 13.17,13.269 C 0.452,-1.58 0.28,-0.802 0,0"
         style="fill:#9eb121;fill-opacity:1;fill-rule:nonzero;stroke:none"
         id="path3445"
         inkscape:connector-curvature="0" /></g><g
       id="g3447"
       transform="translate(329.5425,144.9688)"><path
         d="m 0,0 c 7.657,-14.626 29.299,-17.113 42.407,-8.76 9.584,6.088 15.887,21.672 8.716,31.072 -7.172,9.4 -19.222,14.625 -30.809,13.786 C 5.561,34.165 -6.355,18.75 -1.904,4.604 -1.462,3.057 -0.843,1.533 0,0"
         style="fill:#c6cc38;fill-opacity:1;fill-rule:nonzero;stroke:none"
         id="path3449"
         inkscape:connector-curvature="0" /></g><g
       id="g3451"
       transform="translate(337.7573,146.3291)"><path
         d="m 0,0 c 4.145,-7.917 15.859,-9.262 22.955,-4.739 5.187,3.294 8.6,11.729 4.717,16.819 -3.881,5.086 -10.405,7.913 -16.675,7.463 C 3.012,18.494 -3.439,10.15 -1.03,2.493 -0.79,1.656 -0.457,0.832 0,0"
         style="fill:#9eb121;fill-opacity:1;fill-rule:nonzero;stroke:none"
         id="path3453"
         inkscape:connector-curvature="0" /></g><g
       id="g3455"
       transform="translate(371.874,244.1436)"><path
         d="m 0,0 c 7.436,15.482 27.675,18.521 39.735,10.027 8.82,-6.186 14.389,-22.391 7.51,-32.386 C 40.368,-32.352 29.02,-38.071 18.229,-37.422 4.504,-35.691 -6.306,-19.775 -1.87,-4.863 -1.426,-3.231 -0.817,-1.622 0,0"
         style="fill:#c6cc38;fill-opacity:1;fill-rule:nonzero;stroke:none"
         id="path3457"
         inkscape:connector-curvature="0" /></g><g
       id="g3459"
       transform="translate(394.9863,237.208)"><path
         d="m 0,0 c 3.303,6.878 12.294,8.228 17.652,4.455 3.917,-2.75 6.394,-9.949 3.336,-14.389 -3.053,-4.439 -8.096,-6.978 -12.89,-6.693 -6.097,0.77 -10.899,7.841 -8.928,14.467 0.197,0.722 0.467,1.437 0.83,2.16"
         style="fill:#9eb121;fill-opacity:1;fill-rule:nonzero;stroke:none"
         id="path3461"
         inkscape:connector-curvature="0" /></g><g
       id="g3463"
       transform="translate(344.8872,165.3975)"><path
         d="m 0,0 28.768,-13.686 -15.919,-1.118 1.955,-1.675 17.315,0.837 16.635,-9.17 -0.32,-51.038 c 3.307,0.136 6.613,0.256 9.92,0.341 l -0.727,44.009 44.395,15.215 c -0.484,0.8 -0.758,1.727 -0.816,2.674 L 83.807,-18.683 90,-2.521 l -1.673,0 -7.049,-16.191 -24.358,-8.256 -1.06,35.906 7.324,6.773 17.623,0.242 0.818,1.636 -16.41,0 16.621,15.37 -0.558,2.514 -11.248,-9.875 4.506,17.352 -1.364,-0.545 -5.947,-19.269 -11.084,-9.731 -2.514,53.909 -2.513,0 L 50.834,39.661 37.428,51.951 34.913,51.674 50.274,36.59 49.217,1.205 34.076,13.687 l -1.397,12.012 -1.118,1.952 0,-12.289 -10.333,6.703 -2.793,0.281 L 49.217,-2.445 49.014,-19.065 18.435,-4.748 14.244,5.307 12.011,5.865 15.922,-3.91 -0.279,1.116 0,0 z"
         style="fill:#432416;fill-opacity:1;fill-rule:nonzero;stroke:none"
         id="path3465"
         inkscape:connector-curvature="0" /></g></g></svg>