<?xml version="1.0" encoding="UTF-8" standalone="no"?>
<!-- Created with Inkscape (http://www.inkscape.org/) -->

<svg
   xmlns:dc="http://purl.org/dc/elements/1.1/"
   xmlns:cc="http://creativecommons.org/ns#"
   xmlns:rdf="http://www.w3.org/1999/02/22-rdf-syntax-ns#"
   xmlns:svg="http://www.w3.org/2000/svg"
   xmlns="http://www.w3.org/2000/svg"
   xmlns:sodipodi="http://sodipodi.sourceforge.net/DTD/sodipodi-0.dtd"
   xmlns:inkscape="http://www.inkscape.org/namespaces/inkscape"
   id="svg2985"
   version="1.1"
   inkscape:version="0.48.4 r9939"
   width="195.73849"
   height="242.72113"
   xml:space="preserve"
   sodipodi:docname="tree_3.svg"><metadata
     id="metadata2991"><rdf:RDF><cc:Work
         rdf:about=""><dc:format>image/svg+xml</dc:format><dc:type
           rdf:resource="http://purl.org/dc/dcmitype/StillImage" /><dc:title /></cc:Work></rdf:RDF></metadata><defs
     id="defs2989"><clipPath
       clipPathUnits="userSpaceOnUse"
       id="clipPath2999"><path
         d="M 0,800 800,800 800,0 0,0 0,800 z"
         id="path3001"
         inkscape:connector-curvature="0" /></clipPath><clipPath
       clipPathUnits="userSpaceOnUse"
       id="clipPath3007"><path
         d="M 0,800 800,800 800,0 0,0 0,800 z"
         id="path3009"
         inkscape:connector-curvature="0" /></clipPath><radialGradient
       fx="0"
       fy="0"
       cx="0"
       cy="0"
       r="1"
       gradientUnits="userSpaceOnUse"
       gradientTransform="matrix(507.02533,0,0,507.02533,392.11816,392.13184)"
       spreadMethod="pad"
       id="radialGradient3015"><stop
         style="stop-opacity:1;stop-color:#f5f7e9"
         offset="0"
         id="stop3017" /><stop
         style="stop-opacity:1;stop-color:#d4d6c4"
         offset="1"
         id="stop3019" /></radialGradient><clipPath
       clipPathUnits="userSpaceOnUse"
       id="clipPath3147"><path
         d="M 0,800 800,800 800,0 0,0 0,800 z"
         id="path3149"
         inkscape:connector-curvature="0" /></clipPath></defs><sodipodi:namedview
     pagecolor="#ffffff"
     bordercolor="#666666"
     borderopacity="1"
     objecttolerance="10"
     gridtolerance="10"
     guidetolerance="10"
     inkscape:pageopacity="0"
     inkscape:pageshadow="2"
     inkscape:window-width="1280"
     inkscape:window-height="666"
     id="namedview2987"
     showgrid="false"
     inkscape:zoom="0.449"
     inkscape:cx="-131.27115"
     inkscape:cy="-131.93918"
     inkscape:window-x="-8"
     inkscape:window-y="-8"
     inkscape:window-maximized="1"
     inkscape:current-layer="g2993"
     fit-margin-top="0"
     fit-margin-left="0"
     fit-margin-right="0"
     fit-margin-bottom="0" /><g
     id="g2993"
     inkscape:groupmode="layer"
     inkscape:label="14382-NPMS8H"
     transform="matrix(1.25,0,0,-1.25,-630.968,900.56512)"><g
       id="g3195"
       transform="translate(558.167,702.6362)"><path
         d="m 0,0 c 0,0 -4.207,-8.488 -2.131,-14.069 2.074,-5.584 8.792,-7.547 8.792,-7.547 0,0 2.43,8.035 0.899,12.483 C 6.028,-4.684 0,0 0,0"
         style="fill:#9eb121;fill-opacity:1;fill-rule:nonzero;stroke:none"
         id="path3197"
         inkscape:connector-curvature="0" /></g><g
       id="g3199"
       transform="translate(560.1465,694.7285)"><path
         d="m 0,0 c 0,0 -2.339,-4.718 -1.186,-7.824 1.154,-3.104 4.888,-4.195 4.888,-4.195 0,0 1.352,4.469 0.501,6.941 C 3.352,-2.605 0,0 0,0"
         style="fill:#c6cc38;fill-opacity:1;fill-rule:nonzero;stroke:none"
         id="path3201"
         inkscape:connector-curvature="0" /></g><g
       id="g3203"
       transform="translate(538.1494,683.2568)"><path
         d="m 0,0 c 0,0 5.577,-7.658 11.486,-8.403 5.909,-0.745 10.759,4.301 10.759,4.301 0,0 -5.997,5.873 -10.648,6.576 C 6.942,3.175 0,0 0,0"
         style="fill:#9eb121;fill-opacity:1;fill-rule:nonzero;stroke:none"
         id="path3205"
         inkscape:connector-curvature="0" /></g><g
       id="g3207"
       transform="translate(546.0752,681.3506)"><path
         d="m 0,0 c 0,0 3.101,-4.257 6.386,-4.673 3.286,-0.414 5.983,2.391 5.983,2.391 0,0 -3.335,3.266 -5.921,3.657 C 3.861,1.765 0,0 0,0"
         style="fill:#c6cc38;fill-opacity:1;fill-rule:nonzero;stroke:none"
         id="path3209"
         inkscape:connector-curvature="0" /></g><g
       id="g3211"
       transform="translate(570.5205,665.6953)"><path
         d="m 0,0 c 0,0 -6.682,-1.184 -9.019,-4.753 -2.335,-3.569 -0.612,-8.276 -0.612,-8.276 0,0 5.664,2.014 7.579,4.789 C -0.139,-5.468 0,0 0,0"
         style="fill:#9eb121;fill-opacity:1;fill-rule:nonzero;stroke:none"
         id="path3213"
         inkscape:connector-curvature="0" /></g><g
       id="g3215"
       transform="translate(566.8018,661.1919)"><path
         d="m 0,0 c 0,0 -3.715,-0.657 -5.014,-2.641 -1.298,-1.985 -0.34,-4.601 -0.34,-4.601 0,0 3.151,1.118 4.212,2.66 C -0.077,-3.039 0,0 0,0"
         style="fill:#c6cc38;fill-opacity:1;fill-rule:nonzero;stroke:none"
         id="path3217"
         inkscape:connector-curvature="0" /></g><g
       id="g3219"
       transform="translate(547.9609,669.605)"><path
         d="m 0,0 c 0,0 -1.788,-6.544 0.438,-10.183 2.226,-3.639 7.219,-4.094 7.219,-4.094 0,0 0.602,5.981 -1.087,8.898 C 4.884,-2.463 0,0 0,0"
         style="fill:#9eb121;fill-opacity:1;fill-rule:nonzero;stroke:none"
         id="path3221"
         inkscape:connector-curvature="0" /></g><g
       id="g3223"
       transform="translate(550.4414,664.3203)"><path
         d="m 0,0 c 0,0 -0.996,-3.64 0.242,-5.663 1.237,-2.024 4.013,-2.275 4.013,-2.275 0,0 0.336,3.325 -0.603,4.945 C 2.714,-1.371 0,0 0,0"
         style="fill:#c6cc38;fill-opacity:1;fill-rule:nonzero;stroke:none"
         id="path3225"
         inkscape:connector-curvature="0" /></g><g
       id="g3227"
       transform="translate(527.5557,661.6846)"><path
         d="m 0,0 c 0,0 2.337,-8.021 7.016,-10.408 4.68,-2.387 10.214,0.35 10.214,0.35 0,0 -3.217,6.666 -6.869,8.641 C 6.713,0.558 0,0 0,0"
         style="fill:#9eb121;fill-opacity:1;fill-rule:nonzero;stroke:none"
         id="path3229"
         inkscape:connector-curvature="0" /></g><g
       id="g3231"
       transform="translate(533.5635,657.7324)"><path
         d="m 0,0 c 0,0 1.297,-4.462 3.897,-5.789 2.604,-1.326 5.68,0.198 5.68,0.198 0,0 -1.789,3.706 -3.818,4.801 C 3.729,0.309 0,0 0,0"
         style="fill:#c6cc38;fill-opacity:1;fill-rule:nonzero;stroke:none"
         id="path3233"
         inkscape:connector-curvature="0" /></g><g
       id="g3235"
       transform="translate(523.3857,641.7764)"><path
         d="m 0,0 c 0,0 7.82,-4.661 13.325,-3.089 5.507,1.573 7.887,7.866 7.887,7.866 0,0 -7.518,2.925 -11.897,1.79 C 4.938,5.43 0,0 0,0"
         style="fill:#9eb121;fill-opacity:1;fill-rule:nonzero;stroke:none"
         id="path3237"
         inkscape:connector-curvature="0" /></g><g
       id="g3239"
       transform="translate(531.1123,643.0864)"><path
         d="m 0,0 c 0,0 4.348,-2.595 7.408,-1.721 3.063,0.876 4.383,4.376 4.383,4.376 0,0 -4.18,1.628 -6.61,0.994 C 2.745,3.017 0,0 0,0"
         style="fill:#c6cc38;fill-opacity:1;fill-rule:nonzero;stroke:none"
         id="path3241"
         inkscape:connector-curvature="0" /></g><g
       id="g3243"
       transform="translate(600.5098,707.25)"><path
         d="m 0,0 c 0,0 -9.232,1.483 -13.888,-2.106 -4.656,-3.588 -4.541,-10.496 -4.541,-10.496 0,0 8.285,0.061 12.033,2.803 C -2.653,-7.051 0,0 0,0"
         style="fill:#9eb121;fill-opacity:1;fill-rule:nonzero;stroke:none"
         id="path3245"
         inkscape:connector-curvature="0" /></g><g
       id="g3247"
       transform="translate(593.6357,703.0723)"><path
         d="m 0,0 c 0,0 -5.135,0.825 -7.724,-1.171 -2.589,-1.997 -2.525,-5.835 -2.525,-5.835 0,0 4.607,0.031 6.689,1.556 C -1.478,-3.92 0,0 0,0"
         style="fill:#c6cc38;fill-opacity:1;fill-rule:nonzero;stroke:none"
         id="path3249"
         inkscape:connector-curvature="0" /></g><g
       id="g3251"
       transform="translate(576.3838,720.4521)"><path
         d="m 0,0 c 0,0 -5.587,-7.497 -4.562,-13.286 1.028,-5.788 7.204,-8.885 7.204,-8.885 0,0 3.78,7.373 3.082,11.963 C 5.026,-5.616 0,0 0,0"
         style="fill:#9eb121;fill-opacity:1;fill-rule:nonzero;stroke:none"
         id="path3253"
         inkscape:connector-curvature="0" /></g><g
       id="g3255"
       transform="translate(576.9053,712.4233)"><path
         d="m 0,0 c 0,0 -3.107,-4.168 -2.536,-7.387 0.571,-3.219 4.005,-4.941 4.005,-4.941 0,0 2.104,4.1 1.715,6.651 C 2.796,-3.125 0,0 0,0"
         style="fill:#c6cc38;fill-opacity:1;fill-rule:nonzero;stroke:none"
         id="path3257"
         inkscape:connector-curvature="0" /></g><g
       id="g3259"
       transform="translate(622.0449,655.8389)"><path
         d="m 0,0 c 0,0 -6.517,1.892 -10.189,-0.277 -3.674,-2.168 -4.21,-7.154 -4.21,-7.154 0,0 5.971,-0.696 8.916,0.946 C -2.541,-4.843 0,0 0,0"
         style="fill:#9eb121;fill-opacity:1;fill-rule:nonzero;stroke:none"
         id="path3261"
         inkscape:connector-curvature="0" /></g><g
       id="g3263"
       transform="translate(616.7197,653.4419)"><path
         d="m 0,0 c 0,0 -3.622,1.054 -5.666,-0.152 -2.042,-1.207 -2.338,-3.976 -2.338,-3.976 0,0 3.32,-0.39 4.955,0.524 C -1.413,-2.691 0,0 0,0"
         style="fill:#c6cc38;fill-opacity:1;fill-rule:nonzero;stroke:none"
         id="path3265"
         inkscape:connector-curvature="0" /></g><g
       id="g3267"
       transform="translate(625.8945,638.6807)"><path
         d="m 0,0 c 0,0 -3.355,5.896 -7.503,6.9 -4.145,1.004 -8.003,-2.2 -8.003,-2.2 0,0 3.799,-4.659 7.055,-5.533 C -5.197,-1.704 0,0 0,0"
         style="fill:#9eb121;fill-opacity:1;fill-rule:nonzero;stroke:none"
         id="path3269"
         inkscape:connector-curvature="0" /></g><g
       id="g3271"
       transform="translate(620.4053,640.6709)"><path
         d="m 0,0 c 0,0 -1.863,3.28 -4.17,3.837 -2.308,0.559 -4.448,-1.223 -4.448,-1.223 0,0 2.11,-2.592 3.921,-3.075 C -2.889,-0.947 0,0 0,0"
         style="fill:#c6cc38;fill-opacity:1;fill-rule:nonzero;stroke:none"
         id="path3273"
         inkscape:connector-curvature="0" /></g><g
       id="g3275"
       transform="translate(634.333,672.7192)"><path
         d="m 0,0 c 0,0 -9.588,3.354 -15.252,0.409 -5.668,-2.946 -6.867,-10.355 -6.867,-10.355 0,0 8.87,-1.523 13.402,0.694 C -4.188,-7.037 0,0 0,0"
         style="fill:#9eb121;fill-opacity:1;fill-rule:nonzero;stroke:none"
         id="path3277"
         inkscape:connector-curvature="0" /></g><g
       id="g3279"
       transform="translate(626.1807,669.5659)"><path
         d="m 0,0 c 0,0 -5.329,1.868 -8.481,0.229 -3.152,-1.638 -3.817,-5.756 -3.817,-5.756 0,0 4.932,-0.849 7.449,0.384 C -2.328,-3.908 0,0 0,0"
         style="fill:#c6cc38;fill-opacity:1;fill-rule:nonzero;stroke:none"
         id="path3281"
         inkscape:connector-curvature="0" /></g><g
       id="g3283"
       transform="translate(614.6689,688.9346)"><path
         d="m 0,0 c 0,0 -8.164,-1.772 -10.869,-6.273 -2.707,-4.503 -0.362,-10.214 -0.362,-10.214 0,0 6.874,2.747 9.097,6.251 C 0.09,-6.734 0,0 0,0"
         style="fill:#9eb121;fill-opacity:1;fill-rule:nonzero;stroke:none"
         id="path3285"
         inkscape:connector-curvature="0" /></g><g
       id="g3287"
       transform="translate(610.3096,683.2178)"><path
         d="m 0,0 c 0,0 -4.541,-0.983 -6.046,-3.487 -1.505,-2.503 -0.199,-5.678 -0.199,-5.678 0,0 3.822,1.528 5.057,3.474 C 0.048,-3.742 0,0 0,0"
         style="fill:#c6cc38;fill-opacity:1;fill-rule:nonzero;stroke:none"
         id="path3289"
         inkscape:connector-curvature="0" /></g><g
       id="g3291"
       transform="translate(595.1006,694.48)"><path
         d="m 0,0 c 0,0 -5.195,-7.476 -4.009,-13.078 1.187,-5.603 7.298,-8.415 7.298,-8.415 0,0 3.44,7.296 2.612,11.743 C 5.072,-5.304 0,0 0,0"
         style="fill:#9eb121;fill-opacity:1;fill-rule:nonzero;stroke:none"
         id="path3293"
         inkscape:connector-curvature="0" /></g><g
       id="g3295"
       transform="translate(595.8701,686.6816)"><path
         d="m 0,0 c 0,0 -2.892,-4.155 -2.233,-7.271 0.661,-3.115 4.06,-4.677 4.06,-4.677 0,0 1.915,4.057 1.452,6.528 C 2.817,-2.949 0,0 0,0"
         style="fill:#c6cc38;fill-opacity:1;fill-rule:nonzero;stroke:none"
         id="path3297"
         inkscape:connector-curvature="0" /></g><g
       id="g3299"
       transform="translate(629.334,610.7002)"><path
         d="m 0,0 c -0.494,0.814 -0.772,1.76 -0.833,2.724 l -17.725,-5.167 6.309,16.465 -1.705,0 -7.181,-16.496 -24.818,-8.41 -1.078,36.582 7.462,6.9 17.955,0.247 0.834,1.667 -16.72,0 16.934,15.659 -0.569,2.562 -11.462,-10.063 4.593,17.682 -1.391,-0.556 -6.058,-19.633 -11.293,-9.913 -2.562,54.923 -2.56,0 -0.284,-28.173 -13.661,12.523 -2.561,-0.284 15.651,-15.368 -1.078,-36.052 -15.426,12.716 -1.423,12.239 -1.139,1.99 0,-12.521 -10.528,6.83 -2.846,0.285 31.362,-25.257 -0.206,-16.934 -31.156,14.587 -4.27,10.244 -2.275,0.569 3.984,-9.959 -16.505,5.121 0.284,-1.138 29.31,-13.943 -16.219,-1.139 1.992,-1.707 17.641,0.853 16.95,-9.343 -0.475,-75.737 10.651,0.023 -1.136,68.9 L 0,0 z"
         style="fill:#432416;fill-opacity:1;fill-rule:nonzero;stroke:none"
         id="path3301"
         inkscape:connector-curvature="0" /></g><g
       id="g3303"
       transform="translate(517.0322,616.9214)"><path
         d="m 0,0 c 0,0 4.95,-6.73 10.164,-7.365 5.214,-0.634 9.473,3.837 9.473,3.837 0,0 -5.312,5.155 -9.419,5.756 C 6.113,2.83 0,0 0,0"
         style="fill:#9eb121;fill-opacity:1;fill-rule:nonzero;stroke:none"
         id="path3305"
         inkscape:connector-curvature="0" /></g><g
       id="g3307"
       transform="translate(524.0303,615.2725)"><path
         d="m 0,0 c 0,0 2.752,-3.744 5.651,-4.096 2.901,-0.353 5.266,2.134 5.266,2.134 0,0 -2.954,2.867 -5.234,3.199 C 3.397,1.572 0,0 0,0"
         style="fill:#c6cc38;fill-opacity:1;fill-rule:nonzero;stroke:none"
         id="path3309"
         inkscape:connector-curvature="0" /></g><g
       id="g3311"
       transform="translate(519.9541,596.793)"><path
         d="m 0,0 c 0,0 8.946,-1.693 13.576,1.674 4.63,3.369 4.705,10.097 4.705,10.097 0,0 -8.065,0.165 -11.787,-2.405 C 2.772,6.796 0,0 0,0"
         style="fill:#9eb121;fill-opacity:1;fill-rule:nonzero;stroke:none"
         id="path3313"
         inkscape:connector-curvature="0" /></g><g
       id="g3315"
       transform="translate(526.7588,600.6763)"><path
         d="m 0,0 c 0,0 4.976,-0.944 7.55,0.929 2.575,1.873 2.613,5.614 2.613,5.614 0,0 -4.482,0.094 -6.55,-1.336 C 1.545,3.776 0,0 0,0"
         style="fill:#c6cc38;fill-opacity:1;fill-rule:nonzero;stroke:none"
         id="path3317"
         inkscape:connector-curvature="0" /></g><g
       id="g3319"
       transform="translate(504.7744,639.5483)"><path
         d="m 0,0 c 0,0 2.335,-8.8 7.372,-11.522 5.037,-2.724 11.139,0.114 11.139,0.114 0,0 -3.334,7.347 -7.259,9.594 C 7.325,0.432 0,0 0,0"
         style="fill:#9eb121;fill-opacity:1;fill-rule:nonzero;stroke:none"
         id="path3321"
         inkscape:connector-curvature="0" /></g><g
       id="g3323"
       transform="translate(511.2148,635.0854)"><path
         d="m 0,0 c 0,0 1.298,-4.894 4.098,-6.408 2.8,-1.514 6.191,0.067 6.191,0.067 0,0 -1.851,4.085 -4.032,5.332 C 4.073,0.239 0,0 0,0"
         style="fill:#c6cc38;fill-opacity:1;fill-rule:nonzero;stroke:none"
         id="path3325"
         inkscape:connector-curvature="0" /></g><g
       id="g3327"
       transform="translate(605.5654,639.1948)"><path
         d="m 0,0 c 0,0 -1.81,-6.539 0.404,-10.184 2.213,-3.648 7.203,-4.122 7.203,-4.122 0,0 0.625,5.981 -1.053,8.904 C 4.875,-2.48 0,0 0,0"
         style="fill:#9eb121;fill-opacity:1;fill-rule:nonzero;stroke:none"
         id="path3329"
         inkscape:connector-curvature="0" /></g><g
       id="g3331"
       transform="translate(608.0293,633.8999)"><path
         d="m 0,0 c 0,0 -1.009,-3.635 0.222,-5.663 1.23,-2.028 4.005,-2.29 4.005,-2.29 0,0 0.347,3.325 -0.585,4.95 C 2.709,-1.381 0,0 0,0"
         style="fill:#c6cc38;fill-opacity:1;fill-rule:nonzero;stroke:none"
         id="path3333"
         inkscape:connector-curvature="0" /></g><g
       id="g3335"
       transform="translate(661.3652,614.8032)"><path
         d="m 0,0 c 0,0 -7.901,7.788 -14.871,7.525 -6.97,-0.262 -11.616,-7.018 -11.616,-7.018 0,0 8.049,-5.647 13.558,-5.574 C -7.423,-4.994 0,0 0,0"
         style="fill:#9eb121;fill-opacity:1;fill-rule:nonzero;stroke:none"
         id="path3337"
         inkscape:connector-curvature="0" /></g><g
       id="g3339"
       transform="translate(651.8418,615.4971)"><path
         d="m 0,0 c 0,0 -4.39,4.333 -8.267,4.185 -3.879,-0.145 -6.457,-3.903 -6.457,-3.903 0,0 4.474,-3.139 7.534,-3.099 C -4.123,-2.773 0,0 0,0"
         style="fill:#c6cc38;fill-opacity:1;fill-rule:nonzero;stroke:none"
         id="path3341"
         inkscape:connector-curvature="0" /></g><g
       id="g3343"
       transform="translate(638.5098,633.752)"><path
         d="m 0,0 c 0,0 -8.178,-3.362 -10.161,-8.554 -1.985,-5.193 1.515,-10.707 1.515,-10.707 0,0 6.655,4.135 8.321,8.199 C 1.342,-6.999 0,0 0,0"
         style="fill:#9eb121;fill-opacity:1;fill-rule:nonzero;stroke:none"
         id="path3345"
         inkscape:connector-curvature="0" /></g><g
       id="g3347"
       transform="translate(635.0264,626.9863)"><path
         d="m 0,0 c 0,0 -4.548,-1.867 -5.65,-4.754 -1.103,-2.89 0.841,-5.954 0.841,-5.954 0,0 3.705,2.301 4.628,4.56 C 0.746,-3.893 0,0 0,0"
         style="fill:#c6cc38;fill-opacity:1;fill-rule:nonzero;stroke:none"
         id="path3349"
         inkscape:connector-curvature="0" /></g><g
       id="g3351"
       transform="translate(590.3525,618.3774)"><path
         d="m 0,0 c 0,0 7.227,-4.292 12.305,-2.832 5.08,1.461 7.268,7.275 7.268,7.275 0,0 -6.946,2.688 -10.985,1.632 C 4.549,5.02 0,0 0,0"
         style="fill:#9eb121;fill-opacity:1;fill-rule:nonzero;stroke:none"
         id="path3353"
         inkscape:connector-curvature="0" /></g><g
       id="g3355"
       transform="translate(597.4805,619.5991)"><path
         d="m 0,0 c 0,0 4.02,-2.389 6.843,-1.576 2.825,0.812 4.038,4.045 4.038,4.045 0,0 -3.86,1.496 -6.105,0.907 C 2.531,2.788 0,0 0,0"
         style="fill:#c6cc38;fill-opacity:1;fill-rule:nonzero;stroke:none"
         id="path3357"
         inkscape:connector-curvature="0" /></g><g
       id="g3359"
       transform="translate(548.7441,641.8545)"><path
         d="m 0,0 c 0,0 -5.052,-6.716 -4.154,-11.923 0.9,-5.209 6.441,-8.017 6.441,-8.017 0,0 3.427,6.612 2.817,10.743 C 4.494,-5.068 0,0 0,0"
         style="fill:#9eb121;fill-opacity:1;fill-rule:nonzero;stroke:none"
         id="path3361"
         inkscape:connector-curvature="0" /></g><g
       id="g3363"
       transform="translate(549.1826,634.6362)"><path
         d="m 0,0 c 0,0 -2.813,-3.735 -2.312,-6.631 0.5,-2.895 3.583,-4.454 3.583,-4.454 0,0 1.907,3.675 1.566,5.969 C 2.496,-2.82 0,0 0,0"
         style="fill:#c6cc38;fill-opacity:1;fill-rule:nonzero;stroke:none"
         id="path3365"
         inkscape:connector-curvature="0" /></g><g
       id="g3367"
       transform="translate(557.8506,594.4844)"><path
         d="m 0,0 c 0,0 -1.522,8.266 -5.963,11.13 -4.443,2.865 -10.261,0.689 -10.261,0.689 0,0 2.546,-6.999 5.998,-9.347 C -6.774,0.125 0,0 0,0"
         style="fill:#9eb121;fill-opacity:1;fill-rule:nonzero;stroke:none"
         id="path3369"
         inkscape:connector-curvature="0" /></g><g
       id="g3371"
       transform="translate(552.2412,599.0498)"><path
         d="m 0,0 c 0,0 -0.844,4.597 -3.315,6.19 -2.469,1.593 -5.703,0.38 -5.703,0.38 0,0 1.413,-3.891 3.331,-5.195 C -3.766,0.071 0,0 0,0"
         style="fill:#c6cc38;fill-opacity:1;fill-rule:nonzero;stroke:none"
         id="path3373"
         inkscape:connector-curvature="0" /></g><g
       id="g3375"
       transform="translate(648.3018,597.29)"><path
         d="m 0,0 c 0,0 -1.521,8.266 -5.962,11.131 -4.443,2.865 -10.261,0.688 -10.261,0.688 0,0 2.546,-6.999 5.998,-9.347 C -6.772,0.125 0,0 0,0"
         style="fill:#9eb121;fill-opacity:1;fill-rule:nonzero;stroke:none"
         id="path3377"
         inkscape:connector-curvature="0" /></g><g
       id="g3379"
       transform="translate(642.6924,601.856)"><path
         d="m 0,0 c 0,0 -0.844,4.597 -3.314,6.189 -2.47,1.593 -5.705,0.38 -5.705,0.38 0,0 1.415,-3.891 3.332,-5.194 C -3.764,0.071 0,0 0,0"
         style="fill:#c6cc38;fill-opacity:1;fill-rule:nonzero;stroke:none"
         id="path3381"
         inkscape:connector-curvature="0" /></g></g></svg>