<?xml version="1.0" encoding="UTF-8" standalone="no"?>
<!-- Created with Inkscape (http://www.inkscape.org/) -->

<svg
   xmlns:dc="http://purl.org/dc/elements/1.1/"
   xmlns:cc="http://creativecommons.org/ns#"
   xmlns:rdf="http://www.w3.org/1999/02/22-rdf-syntax-ns#"
   xmlns:svg="http://www.w3.org/2000/svg"
   xmlns="http://www.w3.org/2000/svg"
   xmlns:sodipodi="http://sodipodi.sourceforge.net/DTD/sodipodi-0.dtd"
   xmlns:inkscape="http://www.inkscape.org/namespaces/inkscape"
   id="svg2985"
   version="1.1"
   inkscape:version="0.48.4 r9939"
   width="174.905"
   height="208.57881"
   xml:space="preserve"
   sodipodi:docname="tree_9.svg"><metadata
     id="metadata2991"><rdf:RDF><cc:Work
         rdf:about=""><dc:format>image/svg+xml</dc:format><dc:type
           rdf:resource="http://purl.org/dc/dcmitype/StillImage" /><dc:title /></cc:Work></rdf:RDF></metadata><defs
     id="defs2989"><clipPath
       clipPathUnits="userSpaceOnUse"
       id="clipPath2999"><path
         d="M 0,800 800,800 800,0 0,0 0,800 z"
         id="path3001"
         inkscape:connector-curvature="0" /></clipPath><clipPath
       clipPathUnits="userSpaceOnUse"
       id="clipPath3007"><path
         d="M 0,800 800,800 800,0 0,0 0,800 z"
         id="path3009"
         inkscape:connector-curvature="0" /></clipPath><radialGradient
       fx="0"
       fy="0"
       cx="0"
       cy="0"
       r="1"
       gradientUnits="userSpaceOnUse"
       gradientTransform="matrix(507.02533,0,0,507.02533,392.11816,392.13184)"
       spreadMethod="pad"
       id="radialGradient3015"><stop
         style="stop-opacity:1;stop-color:#f5f7e9"
         offset="0"
         id="stop3017" /><stop
         style="stop-opacity:1;stop-color:#d4d6c4"
         offset="1"
         id="stop3019" /></radialGradient><clipPath
       clipPathUnits="userSpaceOnUse"
       id="clipPath3147"><path
         d="M 0,800 800,800 800,0 0,0 0,800 z"
         id="path3149"
         inkscape:connector-curvature="0" /></clipPath></defs><sodipodi:namedview
     pagecolor="#ffffff"
     bordercolor="#666666"
     borderopacity="1"
     objecttolerance="10"
     gridtolerance="10"
     guidetolerance="10"
     inkscape:pageopacity="0"
     inkscape:pageshadow="2"
     inkscape:window-width="1280"
     inkscape:window-height="666"
     id="namedview2987"
     showgrid="false"
     inkscape:zoom="0.449"
     inkscape:cx="-141.86203"
     inkscape:cy="413.96889"
     inkscape:window-x="-8"
     inkscape:window-y="-8"
     inkscape:window-maximized="1"
     inkscape:current-layer="g2993"
     fit-margin-top="0"
     fit-margin-left="0"
     fit-margin-right="0"
     fit-margin-bottom="0" /><g
     id="g2993"
     inkscape:groupmode="layer"
     inkscape:label="14382-NPMS8H"
     transform="matrix(1.25,0,0,-1.25,-641.55888,320.51475)"><g
       id="g3487"
       transform="translate(598.9121,231.7578)"><path
         d="m 0,0 c 0,0 11.158,2.785 16.374,3.52 5.214,0.733 8.682,-0.147 8.682,-0.147 L 19.073,-8.105 c 0,0 9.082,-1.914 13.677,-3.244 4.595,-1.329 8.184,-4.168 8.184,-4.168 l -9.173,-10.407 c 0,0 7.125,-2.038 14.43,-9.672 7.305,-7.634 8.068,-8.742 8.068,-8.742 0,0 -5.664,-1.861 -10.135,-2.49 -4.471,-0.629 -10.813,-0.912 -10.813,-0.912 0,0 3.61,-4.053 6.091,-7.655 2.484,-3.601 -6.458,-4.86 -16.611,-6.136 -10.154,-1.276 -14.003,0.158 -14.003,0.158 0,0 4.218,-7.309 5.477,-16.25 1.256,-8.94 -1.026,-12.148 -1.026,-12.148 0,0 -7.679,1.654 -14.564,6.307 -6.886,4.654 -10.238,10.11 -10.238,10.11 0,0 -2.189,-9.275 -5.458,-15.205 -3.268,-5.931 -9.345,-11.344 -9.345,-11.344 l -9.012,15.447 -10.269,-5.853 c 0,0 -1.899,8.092 -3.236,10.032 -1.337,1.939 0.737,6.637 0.737,6.637 0,0 -0.448,-1.127 -6.583,-2.901 C -60.86,-78.315 -68.97,-79 -68.97,-79 c 0,0 3.126,9.103 6.241,12.883 3.116,3.782 7.185,6.178 7.185,6.178 0,0 -7.346,-1.794 -12.599,-0.102 -5.253,1.692 -14.515,9.203 -14.515,9.203 0,0 8.035,5.538 10.89,7.916 2.857,2.377 10.758,4.553 10.758,4.553 0,0 -8.406,0.336 -15.432,8.161 -7.029,7.825 -9.223,16.939 -9.223,16.939 0,0 14.902,2.096 22.064,-2.367 7.163,-4.463 11.394,-6.45 11.394,-6.45 0,0 -5.606,6.353 -8.145,13.594 -2.538,7.241 -1.763,11.453 -1.763,11.453 0,0 12.312,-5.41 15.902,-8.249 3.59,-2.837 6.646,-7.27 6.646,-7.27 0,0 -2.108,9.581 -0.768,19.495 1.341,9.915 4.953,17.717 4.953,17.717 0,0 8.519,-7.615 12.91,-13.988 4.392,-6.371 5.631,-14.101 5.631,-14.101 0,0 1.951,6.658 4.407,10.803 2.457,4.145 9.087,9.942 9.087,9.942 0,0 3.302,-8.35 3.339,-10.777 C 0.03,4.107 0,0 0,0"
         style="fill:#9eb121;fill-opacity:1;fill-rule:nonzero;stroke:none"
         id="path3489"
         inkscape:connector-curvature="0" /></g><g
       id="g3491"
       transform="translate(579.9814,221.0146)"><path
         d="M 0,0 C 0,0 6.529,4.182 9.703,5.774 12.875,7.365 15.28,7.55 15.28,7.55 l -1.35,-8.621 c 0,0 6.215,0.733 9.436,0.873 3.222,0.14 6.125,-0.901 6.125,-0.901 l -3.618,-8.623 c 0,0 4.99,0.233 11.301,-3.071 6.309,-3.305 7.037,-3.848 7.037,-3.848 0,0 -3.219,-2.409 -5.94,-3.773 -2.718,-1.364 -6.709,-2.911 -6.709,-2.911 0,0 3.177,-1.811 5.539,-3.578 2.362,-1.766 -3.08,-4.496 -9.29,-7.498 -6.213,-3 -8.981,-2.913 -8.981,-2.913 0,0 4.269,-3.762 6.998,-9.203 2.729,-5.44 1.962,-7.981 1.962,-7.981 0,0 -5.263,-0.597 -10.663,0.894 -5.401,1.49 -8.717,4.253 -8.717,4.253 0,0 0.599,-6.395 -0.214,-10.888 -0.809,-4.493 -3.526,-9.26 -3.526,-9.26 l -9.084,7.928 -5.299,-5.95 c 0,0 -2.955,4.76 -4.227,5.711 -1.273,0.951 -0.959,4.4 -0.959,4.4 0,0 -0.043,-0.819 -3.58,-3.273 -3.536,-2.452 -8.569,-4.636 -8.569,-4.636 0,0 0.037,6.488 1.213,9.574 1.176,3.087 3.26,5.494 3.26,5.494 0,0 -4.307,-2.728 -8.029,-2.778 -3.718,-0.05 -11.252,2.754 -11.252,2.754 0,0 3.94,5.267 5.252,7.401 1.313,2.134 5.891,5.226 5.891,5.226 0,0 -5.441,-1.597 -11.615,1.889 -6.175,3.487 -9.539,8.836 -9.539,8.836 0,0 9.069,4.548 14.604,3.238 5.537,-1.308 8.668,-1.668 8.668,-1.668 0,0 -4.949,2.853 -8.131,6.931 -3.18,4.081 -3.592,6.939 -3.592,6.939 0,0 9.031,-0.806 11.935,-1.847 2.904,-1.039 5.811,-3.213 5.811,-3.213 0,0 -3.409,5.668 -4.688,12.289 -1.279,6.623 -0.651,12.385 -0.651,12.385 0,0 7.081,-3.03 11.26,-6.156 4.177,-3.124 6.631,-7.795 6.631,-7.795 0,0 -0.185,4.673 0.491,7.849 0.676,3.177 3.665,8.308 3.665,8.308 0,0 3.907,-4.623 4.453,-6.165 C -0.864,2.631 0,0 0,0"
         style="fill:#c6cc38;fill-opacity:1;fill-rule:nonzero;stroke:none"
         id="path3493"
         inkscape:connector-curvature="0" /></g><g
       id="g3495"
       transform="translate(581.8799,190.6475)"><path
         d="M 0,0 C -3.447,0.502 -12.211,-96.432 -7.513,-99.451 1.61,-105.313 3.448,-95.813 2.508,-66.467 1.567,-37.121 0,0 0,0"
         style="fill:#432416;fill-opacity:1;fill-rule:nonzero;stroke:none"
         id="path3497"
         inkscape:connector-curvature="0" /></g></g></svg>