<?xml version="1.0" encoding="UTF-8" standalone="no"?>
<!-- Created with Inkscape (http://www.inkscape.org/) -->

<svg
   xmlns:dc="http://purl.org/dc/elements/1.1/"
   xmlns:cc="http://creativecommons.org/ns#"
   xmlns:rdf="http://www.w3.org/1999/02/22-rdf-syntax-ns#"
   xmlns:svg="http://www.w3.org/2000/svg"
   xmlns="http://www.w3.org/2000/svg"
   xmlns:sodipodi="http://sodipodi.sourceforge.net/DTD/sodipodi-0.dtd"
   xmlns:inkscape="http://www.inkscape.org/namespaces/inkscape"
   id="svg2985"
   version="1.1"
   inkscape:version="0.48.4 r9939"
   width="193.75"
   height="253.71049"
   xml:space="preserve"
   sodipodi:docname="tree_2.svg"><metadata
     id="metadata2991"><rdf:RDF><cc:Work
         rdf:about=""><dc:format>image/svg+xml</dc:format><dc:type
           rdf:resource="http://purl.org/dc/dcmitype/StillImage" /><dc:title /></cc:Work></rdf:RDF></metadata><defs
     id="defs2989"><clipPath
       clipPathUnits="userSpaceOnUse"
       id="clipPath2999"><path
         d="M 0,800 800,800 800,0 0,0 0,800 z"
         id="path3001"
         inkscape:connector-curvature="0" /></clipPath><clipPath
       clipPathUnits="userSpaceOnUse"
       id="clipPath3007"><path
         d="M 0,800 800,800 800,0 0,0 0,800 z"
         id="path3009"
         inkscape:connector-curvature="0" /></clipPath><radialGradient
       fx="0"
       fy="0"
       cx="0"
       cy="0"
       r="1"
       gradientUnits="userSpaceOnUse"
       gradientTransform="matrix(507.02533,0,0,507.02533,392.11816,392.13184)"
       spreadMethod="pad"
       id="radialGradient3015"><stop
         style="stop-opacity:1;stop-color:#f5f7e9"
         offset="0"
         id="stop3017" /><stop
         style="stop-opacity:1;stop-color:#d4d6c4"
         offset="1"
         id="stop3019" /></radialGradient><clipPath
       clipPathUnits="userSpaceOnUse"
       id="clipPath3147"><path
         d="M 0,800 800,800 800,0 0,0 0,800 z"
         id="path3149"
         inkscape:connector-curvature="0" /></clipPath></defs><sodipodi:namedview
     pagecolor="#ffffff"
     bordercolor="#666666"
     borderopacity="1"
     objecttolerance="10"
     gridtolerance="10"
     guidetolerance="10"
     inkscape:pageopacity="0"
     inkscape:pageshadow="2"
     inkscape:window-width="1280"
     inkscape:window-height="666"
     id="namedview2987"
     showgrid="false"
     inkscape:zoom="0.44900001"
     inkscape:cx="59.95503"
     inkscape:cy="-66.539648"
     inkscape:window-x="-8"
     inkscape:window-y="-8"
     inkscape:window-maximized="1"
     inkscape:current-layer="g2993"
     fit-margin-top="0"
     fit-margin-left="0"
     fit-margin-right="0"
     fit-margin-bottom="0" /><g
     id="g2993"
     inkscape:groupmode="layer"
     inkscape:label="14382-NPMS8H"
     transform="matrix(1.25,0,0,-1.25,-405.45537,900.56475)"><g
       id="g3467"
       transform="translate(479.3643,633.1738)"><path
         d="m 0,0 c 0,12.379 -7.484,23.006 -18.175,27.613 0.515,2.058 0.791,4.212 0.791,6.429 0,14.601 -11.835,26.437 -26.436,26.437 -2.654,0 -5.216,-0.396 -7.633,-1.124 0.015,0.373 0.028,0.747 0.028,1.124 0,0.122 -0.009,0.241 -0.01,0.362 0.001,0.121 0.01,0.241 0.01,0.362 0,14.401 -11.674,26.075 -26.075,26.075 -14.401,0 -26.075,-11.674 -26.075,-26.075 0,-0.121 0.008,-0.241 0.01,-0.362 -0.002,-0.121 -0.01,-0.24 -0.01,-0.362 0,-0.626 0.03,-1.246 0.074,-1.861 -2.431,0.737 -5.009,1.137 -7.679,1.137 -14.601,0 -26.437,-11.837 -26.437,-26.438 0,-2.217 0.277,-4.37 0.792,-6.428 C -147.515,22.282 -155,11.655 -155,-0.724 c 0,-11.683 6.669,-21.801 16.405,-26.776 -1.235,-3.15 -1.92,-6.576 -1.92,-10.164 0,-15.4 12.486,-27.885 27.887,-27.885 5.129,0 9.932,1.391 14.061,3.808 3.166,-8.566 11.402,-14.673 21.067,-14.673 9.891,0 18.28,6.398 21.275,15.278 4.082,-2.343 8.809,-3.689 13.854,-3.689 15.399,0 27.886,12.485 27.886,27.886 0,3.587 -0.686,7.013 -1.92,10.163 C -6.67,-21.802 0,-11.683 0,0"
         style="fill:#c6cc38;fill-opacity:1;fill-rule:nonzero;stroke:none"
         id="path3469"
         inkscape:connector-curvature="0" /></g><g
       id="g3471"
       transform="translate(455.9063,593.1914)"><path
         d="m 0,0 c -3.426,0.102 -6.495,2.18 -7.822,5.294 -1.499,3.52 -0.565,7.565 2.324,10.066 l 0.377,0.328 -2.618,3.024 -0.378,-0.327 c -4.207,-3.644 -5.569,-9.534 -3.386,-14.658 0.677,-1.589 1.642,-2.993 2.873,-4.179 -0.666,-1.497 -1.559,-2.878 -2.662,-4.108 -2.381,-2.655 -5.498,-4.386 -9.013,-5.005 -4.824,-0.85 -9.675,0.53 -13.308,3.787 -0.49,0.437 -0.961,0.923 -1.441,1.482 l -10e-4,0.016 c -0.008,0.069 -0.015,0.138 -0.027,0.207 l -0.088,0.496 -0.418,-0.077 c -3.28,4.246 -4.168,9.944 -2.338,15.004 1.001,0.218 1.971,0.554 2.885,0.999 3.066,1.493 5.368,4.092 6.479,7.318 0.61,1.769 0.822,3.6 0.634,5.441 l -0.051,0.498 -3.979,-0.405 0.05,-0.498 c 0.13,-1.264 -0.017,-2.521 -0.436,-3.734 -0.764,-2.215 -2.344,-4 -4.449,-5.025 -2.085,-1.014 -4.51,-1.162 -6.7,-0.405 -3.616,1.245 -5.991,4.65 -5.911,8.472 l 0.011,0.5 -4,0.085 -0.01,-0.5 c -0.118,-5.566 3.34,-10.524 8.607,-12.34 0.849,-0.292 1.728,-0.495 2.619,-0.605 -1.595,-5.878 -0.378,-12.209 3.304,-17.075 0.214,-1.922 0.086,-3.822 -0.38,-5.649 -1.537,-6.001 -6.481,-10.575 -12.599,-11.653 -2.211,-0.389 -4.443,-0.303 -6.632,0.257 -6.464,1.653 -10.774,8.886 -11.661,15.029 0.042,0.011 0.082,0.023 0.123,0.036 10.432,3.234 16.288,14.351 13.055,24.783 -0.528,1.704 -1.299,3.344 -2.294,4.881 3.094,2.032 5.141,5.255 5.644,8.919 0.255,1.849 0.109,3.688 -0.433,5.464 l -0.145,0.478 -3.827,-1.167 0.146,-0.479 c 0.373,-1.22 0.473,-2.482 0.297,-3.75 -0.521,-3.788 -3.401,-6.78 -7.171,-7.443 -0.893,-0.157 -1.805,-0.174 -2.71,-0.05 -3.79,0.523 -6.782,3.402 -7.445,7.166 l -0.087,0.493 -3.939,-0.694 0.086,-0.492 c 0.966,-5.482 5.322,-9.675 10.839,-10.435 1.318,-0.181 2.646,-0.157 3.946,0.072 0.351,0.062 0.71,0.144 1.11,0.256 0.946,-1.346 1.673,-2.826 2.162,-4.403 1.248,-4.026 0.85,-8.303 -1.119,-12.043 -1.971,-3.74 -5.274,-6.486 -9.301,-7.735 -0.645,-0.2 -1.308,-0.361 -1.969,-0.478 -5.631,-0.992 -11.332,1.144 -14.946,5.581 0.333,0.987 0.545,1.989 0.63,2.981 0.294,3.398 -0.754,6.707 -2.95,9.318 -1.205,1.43 -2.667,2.553 -4.345,3.339 l -0.452,0.213 -1.698,-3.623 0.453,-0.212 c 1.151,-0.539 2.154,-1.31 2.981,-2.293 1.508,-1.792 2.227,-4.064 2.026,-6.398 -0.201,-2.334 -1.299,-4.449 -3.091,-5.958 -1.188,-0.998 -2.617,-1.667 -4.132,-1.935 -2.134,-0.376 -4.327,0.056 -6.174,1.215 l -0.424,0.266 -2.126,-3.388 0.423,-0.266 c 2.69,-1.688 5.884,-2.317 8.994,-1.769 2.208,0.39 4.287,1.364 6.013,2.817 0.672,0.564 1.294,1.215 1.855,1.94 4.16,-4.324 10.089,-6.532 16.063,-5.974 1.172,-7.533 6.484,-16.062 14.601,-18.138 0.478,-0.122 0.958,-0.202 1.439,-0.289 l 0,-48.574 7.99,0 0,48.781 c 7.143,1.686 12.837,7.212 14.668,14.363 0.217,0.851 0.375,1.736 0.477,2.685 4.362,-3.259 9.881,-4.578 15.294,-3.625 4.405,0.776 8.31,2.945 11.294,6.274 1.189,1.326 2.198,2.827 3.005,4.469 1.56,-0.75 3.291,-1.181 5.041,-1.252 l 0.472,-0.019 0.047,0.469 c 0.103,1.025 0.182,2.047 0.231,3.038 L 0.51,-0.015 0,0 z"
         style="fill:#432416;fill-opacity:1;fill-rule:nonzero;stroke:none"
         id="path3473"
         inkscape:connector-curvature="0" /></g><g
       id="g3475"
       transform="translate(355.7134,659.1772)"><path
         d="m 0,0 c 0,11.598 9.401,21 20.999,21 1.76,0 3.46,-0.241 5.095,-0.649 C 22.761,23.24 18.424,25 13.667,25 c -10.494,0 -19,-8.507 -19,-19 0,-6.116 2.901,-11.542 7.389,-15.017 C 0.751,-6.282 0,-3.232 0,0"
         style="fill:#9eb121;fill-opacity:1;fill-rule:nonzero;stroke:none"
         id="path3477"
         inkscape:connector-curvature="0" /></g><g
       id="g3479"
       transform="translate(389.1025,698.1919)"><path
         d="m 0,0 c 8.201,8.201 21.498,8.2 29.698,0 1.244,-1.245 2.278,-2.617 3.145,-4.062 -0.315,4.4 -2.138,8.712 -5.5,12.075 -7.421,7.42 -19.45,7.42 -26.87,0 C -3.853,3.688 -5.638,-2.199 -4.921,-7.831 -3.91,-4.974 -2.285,-2.286 0,0"
         style="fill:#9eb121;fill-opacity:1;fill-rule:nonzero;stroke:none"
         id="path3481"
         inkscape:connector-curvature="0" /></g><g
       id="g3483"
       transform="translate(429.4365,679.2168)"><path
         d="m 0,0 c 11.598,0 21,-9.403 20.999,-21 0,-1.76 -0.239,-3.46 -0.647,-5.095 2.888,3.333 4.648,7.671 4.648,12.427 0,10.494 -8.507,19 -19,19 -6.116,0 -11.542,-2.901 -15.017,-7.39 C -6.282,-0.752 -3.232,0 0,0"
         style="fill:#9eb121;fill-opacity:1;fill-rule:nonzero;stroke:none"
         id="path3485"
         inkscape:connector-curvature="0" /></g></g></svg>