<?xml version="1.0" encoding="UTF-8" standalone="no"?>
<!-- Created with Inkscape (http://www.inkscape.org/) -->

<svg
   xmlns:dc="http://purl.org/dc/elements/1.1/"
   xmlns:cc="http://creativecommons.org/ns#"
   xmlns:rdf="http://www.w3.org/1999/02/22-rdf-syntax-ns#"
   xmlns:svg="http://www.w3.org/2000/svg"
   xmlns="http://www.w3.org/2000/svg"
   xmlns:sodipodi="http://sodipodi.sourceforge.net/DTD/sodipodi-0.dtd"
   xmlns:inkscape="http://www.inkscape.org/namespaces/inkscape"
   id="svg2985"
   version="1.1"
   inkscape:version="0.48.4 r9939"
   width="165.02251"
   height="220.43526"
   xml:space="preserve"
   sodipodi:docname="tree_4.svg"><metadata
     id="metadata2991"><rdf:RDF><cc:Work
         rdf:about=""><dc:format>image/svg+xml</dc:format><dc:type
           rdf:resource="http://purl.org/dc/dcmitype/StillImage" /><dc:title /></cc:Work></rdf:RDF></metadata><defs
     id="defs2989"><clipPath
       clipPathUnits="userSpaceOnUse"
       id="clipPath2999"><path
         d="M 0,800 800,800 800,0 0,0 0,800 z"
         id="path3001"
         inkscape:connector-curvature="0" /></clipPath><clipPath
       clipPathUnits="userSpaceOnUse"
       id="clipPath3007"><path
         d="M 0,800 800,800 800,0 0,0 0,800 z"
         id="path3009"
         inkscape:connector-curvature="0" /></clipPath><radialGradient
       fx="0"
       fy="0"
       cx="0"
       cy="0"
       r="1"
       gradientUnits="userSpaceOnUse"
       gradientTransform="matrix(507.02533,0,0,507.02533,392.11816,392.13184)"
       spreadMethod="pad"
       id="radialGradient3015"><stop
         style="stop-opacity:1;stop-color:#f5f7e9"
         offset="0"
         id="stop3017" /><stop
         style="stop-opacity:1;stop-color:#d4d6c4"
         offset="1"
         id="stop3019" /></radialGradient><clipPath
       clipPathUnits="userSpaceOnUse"
       id="clipPath3147"><path
         d="M 0,800 800,800 800,0 0,0 0,800 z"
         id="path3149"
         inkscape:connector-curvature="0" /></clipPath></defs><sodipodi:namedview
     pagecolor="#ffffff"
     bordercolor="#666666"
     borderopacity="1"
     objecttolerance="10"
     gridtolerance="10"
     guidetolerance="10"
     inkscape:pageopacity="0"
     inkscape:pageshadow="2"
     inkscape:window-width="1280"
     inkscape:window-height="666"
     id="namedview2987"
     showgrid="false"
     inkscape:zoom="0.449"
     inkscape:cx="309.79323"
     inkscape:cy="169.4087"
     inkscape:window-x="-8"
     inkscape:window-y="-8"
     inkscape:window-maximized="1"
     inkscape:current-layer="g2993"
     fit-margin-top="0"
     fit-margin-left="0"
     fit-margin-right="0"
     fit-margin-bottom="0" /><g
     id="g2993"
     inkscape:groupmode="layer"
     inkscape:label="14382-NPMS8H"
     transform="matrix(1.25,0,0,-1.25,-189.90362,576.93137)"><g
       id="g3159"
       transform="translate(283.9409,395.5361)"><path
         d="m 0,0 c 0,-36.455 -29.553,-66.009 -66.009,-66.009 -36.455,0 -66.009,29.554 -66.009,66.009 0,36.456 29.554,66.009 66.009,66.009 C -29.553,66.009 0,36.456 0,0"
         style="fill:#c6cc38;fill-opacity:1;fill-rule:nonzero;stroke:none"
         id="path3161"
         inkscape:connector-curvature="0" /></g><g
       id="g3163"
       transform="translate(256.7207,403.7021)"><path
         d="m 0,0 c 0,-27.437 -22.241,-49.677 -49.676,-49.677 -27.436,0 -49.677,22.24 -49.677,49.677 0,27.436 22.241,49.677 49.677,49.677 C -22.241,49.677 0,27.436 0,0"
         style="fill:#b5bc2a;fill-opacity:1;fill-rule:nonzero;stroke:none"
         id="path3165"
         inkscape:connector-curvature="0" /></g><g
       id="g3167"
       transform="translate(259.1406,409.1797)"><path
         d="m 0,0 c 0,-8.196 -6.644,-14.841 -14.84,-14.841 -8.196,0 -14.84,6.645 -14.84,14.841 0,8.196 6.644,14.84 14.84,14.84 C -6.644,14.84 0,8.196 0,0"
         style="fill:#9eb121;fill-opacity:1;fill-rule:nonzero;stroke:none"
         id="path3169"
         inkscape:connector-curvature="0" /></g><g
       id="g3171"
       transform="translate(267.249,384.3779)"><path
         d="m 0,0 c 0,-6.09 -4.936,-11.025 -11.024,-11.025 -6.089,0 -11.025,4.935 -11.025,11.025 0,6.088 4.936,11.024 11.025,11.024 C -4.936,11.024 0,6.088 0,0"
         style="fill:#9eb121;fill-opacity:1;fill-rule:nonzero;stroke:none"
         id="path3173"
         inkscape:connector-curvature="0" /></g><g
       id="g3175"
       transform="translate(260.0952,359.5762)"><path
         d="m 0,0 c 0,-6.089 -4.936,-11.024 -11.024,-11.024 -6.089,0 -11.025,4.935 -11.025,11.024 0,6.089 4.936,11.025 11.025,11.025 C -4.936,11.025 0,6.089 0,0"
         style="fill:#9eb121;fill-opacity:1;fill-rule:nonzero;stroke:none"
         id="path3177"
         inkscape:connector-curvature="0" /></g><g
       id="g3179"
       transform="translate(198.0923,375.3154)"><path
         d="m 0,0 c 0,-6.089 -4.936,-11.024 -11.024,-11.024 -6.089,0 -11.025,4.935 -11.025,11.024 0,6.089 4.936,11.024 11.025,11.024 C -4.936,11.024 0,6.089 0,0"
         style="fill:#9eb121;fill-opacity:1;fill-rule:nonzero;stroke:none"
         id="path3181"
         inkscape:connector-curvature="0" /></g><g
       id="g3183"
       transform="translate(199.5234,399.6396)"><path
         d="m 0,0 c 0,-6.088 -4.936,-11.023 -11.024,-11.023 -6.089,0 -11.025,4.935 -11.025,11.023 0,6.09 4.936,11.025 11.025,11.025 C -4.936,11.025 0,6.09 0,0"
         style="fill:#9eb121;fill-opacity:1;fill-rule:nonzero;stroke:none"
         id="path3185"
         inkscape:connector-curvature="0" /></g><g
       id="g3187"
       transform="translate(225.2783,424.917)"><path
         d="m 0,0 c 0,-6.088 -4.936,-11.023 -11.024,-11.023 -6.089,0 -11.025,4.935 -11.025,11.023 0,6.09 4.936,11.025 11.025,11.025 C -4.936,11.025 0,6.09 0,0"
         style="fill:#9eb121;fill-opacity:1;fill-rule:nonzero;stroke:none"
         id="path3189"
         inkscape:connector-curvature="0" /></g><g
       id="g3191"
       transform="translate(244.4517,380.2139)"><path
         d="m 0,0 12.979,-2.14 -10.126,3.993 15.26,8.843 -45.148,-15.597 -0.958,14.203 33.841,16.37 -14.976,-3.995 -0.285,7.417 -1.283,-7.844 -17.668,-6.46 -2.014,29.85 -3.178,-37.109 -16.789,7.729 -0.998,7.131 -0.429,-6.703 -11.552,4.421 29.313,-17.891 -1.886,-22.03 -16.302,8.83 -3.424,13.263 0,-11.552 -10.696,3.85 29.915,-20.311 -6.441,-69.285 21.88,0.173 -3.806,56.389 35.468,18.915 -8.985,-2.461 -0.428,8.88 -1.712,-9.414 -24.817,-8.89 -1.144,16.946 L 0,0 z"
         style="fill:#432416;fill-opacity:1;fill-rule:nonzero;stroke:none"
         id="path3193"
         inkscape:connector-curvature="0" /></g></g></svg>