<?xml version="1.0" encoding="UTF-8" standalone="no"?>
<!-- Created with Inkscape (http://www.inkscape.org/) -->

<svg
   xmlns:dc="http://purl.org/dc/elements/1.1/"
   xmlns:cc="http://creativecommons.org/ns#"
   xmlns:rdf="http://www.w3.org/1999/02/22-rdf-syntax-ns#"
   xmlns:svg="http://www.w3.org/2000/svg"
   xmlns="http://www.w3.org/2000/svg"
   xmlns:sodipodi="http://sodipodi.sourceforge.net/DTD/sodipodi-0.dtd"
   xmlns:inkscape="http://www.inkscape.org/namespaces/inkscape"
   id="svg2985"
   version="1.1"
   inkscape:version="0.48.4 r9939"
   width="209.59377"
   height="202.51491"
   xml:space="preserve"
   sodipodi:docname="tree_6.svg"><metadata
     id="metadata2991"><rdf:RDF><cc:Work
         rdf:about=""><dc:format>image/svg+xml</dc:format><dc:type
           rdf:resource="http://purl.org/dc/dcmitype/StillImage" /><dc:title /></cc:Work></rdf:RDF></metadata><defs
     id="defs2989"><clipPath
       clipPathUnits="userSpaceOnUse"
       id="clipPath2999"><path
         d="M 0,800 800,800 800,0 0,0 0,800 z"
         id="path3001"
         inkscape:connector-curvature="0" /></clipPath><clipPath
       clipPathUnits="userSpaceOnUse"
       id="clipPath3007"><path
         d="M 0,800 800,800 800,0 0,0 0,800 z"
         id="path3009"
         inkscape:connector-curvature="0" /></clipPath><radialGradient
       fx="0"
       fy="0"
       cx="0"
       cy="0"
       r="1"
       gradientUnits="userSpaceOnUse"
       gradientTransform="matrix(507.02533,0,0,507.02533,392.11816,392.13184)"
       spreadMethod="pad"
       id="radialGradient3015"><stop
         style="stop-opacity:1;stop-color:#f5f7e9"
         offset="0"
         id="stop3017" /><stop
         style="stop-opacity:1;stop-color:#d4d6c4"
         offset="1"
         id="stop3019" /></radialGradient><clipPath
       clipPathUnits="userSpaceOnUse"
       id="clipPath3147"><path
         d="M 0,800 800,800 800,0 0,0 0,800 z"
         id="path3149"
         inkscape:connector-curvature="0" /></clipPath></defs><sodipodi:namedview
     pagecolor="#ffffff"
     bordercolor="#666666"
     borderopacity="1"
     objecttolerance="10"
     gridtolerance="10"
     guidetolerance="10"
     inkscape:pageopacity="0"
     inkscape:pageshadow="2"
     inkscape:window-width="1280"
     inkscape:window-height="666"
     id="namedview2987"
     showgrid="false"
     inkscape:zoom="0.449"
     inkscape:cx="-108.49183"
     inkscape:cy="-8.7660244"
     inkscape:window-x="-8"
     inkscape:window-y="-8"
     inkscape:window-maximized="1"
     inkscape:current-layer="g2993"
     fit-margin-top="0"
     fit-margin-left="0"
     fit-margin-right="0"
     fit-margin-bottom="0" /><g
     id="g2993"
     inkscape:groupmode="layer"
     inkscape:label="14382-NPMS8H"
     transform="matrix(1.25,0,0,-1.25,-608.18868,559.01203)"><g
       id="g3395"
       transform="translate(591.5078,386.6084)"><path
         d="M 0,0 C -9.62,-29.514 -48.967,-40.903 -75.888,-29.514 -95.563,-21.23 -112.129,5.691 -101.774,25.365 -91.42,45.038 -70.712,58.5 -48.967,60.57 -21.01,61.605 5.912,36.756 2.086,9.138 1.755,6.127 1.083,3.106 0,0"
         style="fill:#c6cc38;fill-opacity:1;fill-rule:nonzero;stroke:none"
         id="path3397"
         inkscape:connector-curvature="0" /></g><g
       id="g3399"
       transform="translate(573.4805,368.2559)"><path
         d="m 0,0 c -0.143,-0.352 -3.615,-8.58 -14.245,-6.104 -2.186,0.51 -3.908,1.347 -5.271,2.374 3.112,2.012 5.558,4.358 7.112,6.495 4.396,6.044 5.524,11.501 5.569,11.728 l -2.03,0.406 c -0.01,-0.05 -1.081,-5.234 -5.214,-10.918 -1.507,-2.072 -3.918,-4.36 -7.004,-6.28 -4.188,4.594 -3.378,11.227 -3.326,11.606 l -2.051,0.281 c -0.015,-0.106 -0.958,-7.568 3.554,-12.937 -5.158,-2.718 -11.838,-4.285 -19.212,-2.515 -3.713,0.89 -6.469,2.634 -8.52,4.658 1.742,0.529 3.181,1.46 4.285,2.806 3.013,3.669 2.426,8.988 2.399,9.214 l -2.056,-0.241 c 0.005,-0.046 0.503,-4.69 -1.95,-7.668 -1.023,-1.241 -2.448,-2.029 -4.237,-2.362 -3.533,4.525 -4.192,9.621 -4.232,9.96 l -2.056,-0.238 c 0.009,-0.086 0.644,-5.081 3.935,-9.904 -7.598,0.071 -10.397,6.46 -10.517,6.746 l -1.912,-0.794 c 0.034,-0.084 3.445,-8.036 12.569,-8.036 0.419,0 0.849,0.018 1.292,0.053 0.044,0.002 0.083,0.011 0.127,0.015 2.353,-2.694 5.683,-5.094 10.389,-6.224 2.038,-0.49 2.501,-0.702 4.426,-0.756 l 1.4,-73.258 3.13,-0.415 -0.941,73.668 c 4.978,0.223 9.475,1.718 13.191,3.775 1.656,-1.423 3.825,-2.59 6.682,-3.255 1.532,-0.357 2.94,-0.513 4.232,-0.513 9.09,0 12.365,7.765 12.401,7.855 L 0,0 z"
         style="fill:#432416;fill-opacity:1;fill-rule:nonzero;stroke:none"
         id="path3401"
         inkscape:connector-curvature="0" /></g><g
       id="g3403"
       transform="translate(651.7764,383.3477)"><path
         d="m 0,0 c -9.62,-29.515 -48.968,-40.904 -75.89,-29.515 -19.673,8.285 -36.24,35.206 -25.885,54.879 10.353,19.674 31.063,33.135 52.807,35.206 C -21.011,61.605 5.911,36.755 2.085,9.137 1.754,6.127 1.082,3.105 0,0"
         style="fill:#9eb121;fill-opacity:1;fill-rule:nonzero;stroke:none"
         id="path3405"
         inkscape:connector-curvature="0" /></g><g
       id="g3407"
       transform="translate(630.1035,367.3477)"><path
         d="m 0,0 c -0.143,-0.354 -3.614,-8.581 -14.244,-6.104 -2.186,0.509 -3.909,1.345 -5.272,2.373 3.112,2.012 5.559,4.359 7.112,6.495 4.397,6.045 5.524,11.5 5.57,11.729 l -2.031,0.406 c -0.01,-0.051 -1.08,-5.235 -5.213,-10.918 -1.508,-2.073 -3.918,-4.362 -7.004,-6.281 -4.189,4.594 -3.379,11.227 -3.326,11.607 l -2.053,0.28 c -0.014,-0.105 -0.957,-7.568 3.555,-12.936 -5.158,-2.72 -11.838,-4.287 -19.212,-2.516 -3.713,0.89 -6.469,2.634 -8.519,4.659 1.739,0.527 3.181,1.459 4.285,2.805 3.012,3.669 2.425,8.989 2.399,9.214 l -2.057,-0.241 c 0.005,-0.047 0.504,-4.689 -1.95,-7.668 -1.023,-1.24 -2.448,-2.029 -4.237,-2.362 -3.534,4.525 -4.192,9.622 -4.233,9.961 l -2.055,-0.239 c 0.009,-0.086 0.645,-5.081 3.935,-9.904 -7.598,0.071 -10.397,6.461 -10.517,6.747 L -66.98,6.31 c 0.036,-0.084 3.447,-8.033 12.57,-8.033 0.419,0 0.849,0.018 1.292,0.052 0.044,0.003 0.083,0.011 0.127,0.015 2.354,-2.695 5.684,-5.095 10.39,-6.224 2.037,-0.489 4.019,-0.728 5.944,-0.783 l 0.184,-73.487 3.966,0.233 -0.7,73.49 c 4.978,0.224 8.095,1.505 11.811,3.56 1.656,-1.422 3.825,-2.588 6.682,-3.253 1.533,-0.358 2.941,-0.515 4.232,-0.515 9.091,0 12.365,7.765 12.401,7.856 L 0,0 z"
         style="fill:#432416;fill-opacity:1;fill-rule:nonzero;stroke:none"
         id="path3409"
         inkscape:connector-curvature="0" /></g></g></svg>